<?xml version="1.0" encoding="UTF-8"?>
<svg width="12px" height="12px" viewBox="0 0 12 12" version="1.1" xmlns="http://www.w3.org/2000/svg" xmlns:xlink="http://www.w3.org/1999/xlink">
    <!-- Generator: Sketch 48.2 (47327) - http://www.bohemiancoding.com/sketch -->
    <title>file</title>
    <desc>Created with Sketch.</desc>
    <defs></defs>
    <g id="新增页面---综合威胁统计" stroke="none" stroke-width="1" fill="none" fill-rule="evenodd" transform="translate(-885.000000, -153.000000)">
        <g id="icon" transform="translate(840.000000, 153.000000)" fill="#29774A" fill-rule="nonzero">
            <path d="M55.8,7.8 L55.8,1.2 L46.2,1.2 L46.2,10.8 L52.74,10.8 L52.74,8.82 C52.74,8.22 53.22,7.8 53.76,7.8 L55.8,7.8 Z M55.8,0 C56.46,0 57,0.54 57,1.2 L57,8.4 C55.62,9.78 54.78,10.62 53.4,12 L46.2,12 C45.54,12 45,11.46 45,10.8 L45,1.2 C45,0.54 45.54,0 46.2,0 L55.8,0 Z M47.4,3 L54.6,3 L54.6,3.6 L47.4,3.6 L47.4,3 Z M47.4,6 L54.6,6 L54.6,6.6 L47.4,6.6 L47.4,6 Z M47.4,8.4 L51.6,8.4 L51.6,9 L47.4,9 L47.4,8.4 Z" id="file"></path>
        </g>
    </g>
</svg>